<?xml version="1.0" encoding="utf-8"?>
<!-- Generator: Adobe Illustrator 23.1.1, SVG Export Plug-In . SVG Version: 6.00 Build 0)  -->
<svg version="1.1" id="Capa_1" xmlns="http://www.w3.org/2000/svg" xmlns:xlink="http://www.w3.org/1999/xlink" x="0px" y="0px"
	 viewBox="0 0 148 25" style="enable-background:new 0 0 148 25;" xml:space="preserve">
<style type="text/css">
	.st0{fill-rule:evenodd;clip-rule:evenodd;fill:#5267DF;}
	.st1{fill-rule:evenodd;clip-rule:evenodd;fill:#FFFFFF;}
	.st2{fill:#FFFFFF;}
</style>
<g>
	<g>
		<circle class="st0" cx="12.5" cy="12.5" r="12.5"/>
		<path class="st1" d="M9,9v10l3.5-3.4l3.5,3.4V9c0-1.1-0.9-2-2-2H11C9.9,7,9,7.9,9,9z"/>
	</g>
	<g>
		<g>
			<path class="st2" d="M36.1,6.7H40c2.2,0,3.5,1.2,3.5,3.3c0,1.6-0.8,2.4-1.5,2.7c0.9,0.4,1.9,1.2,1.9,3.1c0,2.4-1.6,3.8-3.9,3.8
				h-3.9V6.7z M39.4,11.8c1.4,0,1.8-0.6,1.8-1.7c0-1.1-0.6-1.6-1.7-1.6h-1.2v3.3H39.4z M38.3,17.7h1.4c1.1,0,1.8-0.6,1.8-2
				c0-1.3-0.5-2.1-2.1-2.1h-1.1V17.7z"/>
			<path class="st2" d="M52.4,14.5c0,3.6-1.3,5.2-3.7,5.2c-2.4,0-3.7-1.5-3.7-5.1c0-3.5,1.5-5.1,3.8-5.1
				C51.2,9.5,52.4,11.2,52.4,14.5z M47.3,14.6c0,2.1,0.4,3.3,1.4,3.3c1,0,1.4-1.1,1.4-3.2c0-2.2-0.4-3.2-1.4-3.2
				C47.7,11.4,47.3,12.5,47.3,14.6z"/>
			<path class="st2" d="M60.9,14.5c0,3.6-1.3,5.2-3.7,5.2c-2.4,0-3.7-1.5-3.7-5.1c0-3.5,1.5-5.1,3.8-5.1
				C59.6,9.5,60.9,11.2,60.9,14.5z M55.8,14.6c0,2.1,0.4,3.3,1.4,3.3c1,0,1.4-1.1,1.4-3.2c0-2.2-0.4-3.2-1.4-3.2
				C56.2,11.4,55.8,12.5,55.8,14.6z"/>
			<path class="st2" d="M64.7,13.9c0.7-1.2,1.6-2.8,2.4-4.2h2.5c-0.8,1.2-1.6,2.4-2.4,3.6c0,0,2.5,6.2,2.5,6.2h-2.6l-1.5-4.4
				c-0.3,0.4-0.7,1.1-1,1.4v3h-2.3V6h2.3V13.9z"/>
			<path class="st2" d="M70.5,12.6c0-1.9,0-2.5,0-2.9h2.2c0,0.2,0.1,0.7,0.1,1c0.4-0.8,1.2-1.2,2.2-1.2c1.1,0,1.7,0.5,2,1.3
				c0.4-0.7,1.1-1.3,2.4-1.3c1.4,0,2.5,0.7,2.5,2.9v7.1h-2.2v-6.7c0-0.8-0.3-1.4-1-1.4c-0.9,0-1.2,0.7-1.2,1.9v6.2h-2.3v-6.7
				c0-0.9-0.3-1.4-1-1.4c-0.9,0-1.2,0.6-1.2,2v6.1h-2.3V12.6z"/>
			<path class="st2" d="M90.3,17.4c0,0.5,0,1.7,0.1,2.1h-2.1c0-0.2-0.1-0.6-0.1-0.9c-0.4,0.6-1,1.1-2.2,1.1c-1.9,0-2.6-1.5-2.6-2.9
				c0-2,1.4-3.2,3.9-3.2c0.3,0,0.6,0,0.8,0v-1.1c0-0.6-0.1-1.2-1.1-1.2c-0.9,0-1.1,0.6-1.1,1.3h-2.2c0-1.4,0.7-3,3.3-3
				c2.1,0,3.2,1,3.2,2.8V17.4z M88.1,15.2c-0.2,0-0.4,0-0.7,0c-1.3,0-1.8,0.6-1.8,1.4c0,0.6,0.3,1.3,1.1,1.3c1.2,0,1.4-0.9,1.4-2.3
				V15.2z"/>
			<path class="st2" d="M92.3,13c0-1.6,0-2.6,0-3.3h2.2c0,0.2,0.1,0.6,0.1,1.6c0.4-1.1,1.2-1.8,2.6-1.8v2.5c-1.6,0-2.5,0.4-2.5,2.3
				v5.2h-2.3V13z"/>
			<path class="st2" d="M100.5,13.9c0.7-1.2,1.6-2.8,2.4-4.2h2.5c-0.8,1.2-1.6,2.4-2.4,3.6l2.5,6.2H103l-1.5-4.4
				c-0.3,0.4-0.7,1.1-1,1.4v3h-2.3V6h2.3V13.9z"/>
		</g>
	</g>
</g>
<g>
	<g>
		<path d="M18.8-66.9h2.3V-56h4.4l-0.2,2h-6.5V-66.9z"/>
		<path d="M33.5-59c0,3.6-1.3,5.2-3.7,5.2c-2.4,0-3.7-1.5-3.7-5.1c0-3.5,1.5-5.1,3.8-5.1C32.2-64,33.5-62.3,33.5-59z M28.4-59
			c0,2.1,0.4,3.3,1.4,3.3c1,0,1.4-1.1,1.4-3.2c0-2.2-0.4-3.2-1.4-3.2C28.8-62.1,28.4-61.1,28.4-59z"/>
		<path d="M35-60.5c0-1.6,0-2.6,0-3.3h2.2c0,0.2,0.1,0.6,0.1,1.6c0.4-1.1,1.2-1.8,2.6-1.8v2.5c-1.6,0-2.5,0.4-2.5,2.3v5.2H35V-60.5z
			"/>
		<path d="M42.8-58.4c0,1.2,0.2,2.6,1.4,2.6c1.1,0,1.3-1,1.3-1.3h2.2c0,0.3-0.3,3.2-3.5,3.2c-3.2,0-3.6-2.7-3.6-5.2
			c0-3.1,1.2-5,3.7-5c2.9,0,3.6,2.1,3.6,4.7c0,0.3,0,0.8,0,1H42.8z M45.6-60c0-1-0.1-2.2-1.3-2.2c-1.3,0-1.4,1.5-1.4,2.2H45.6z"/>
		<path d="M49.4-60.9c0-1.9,0-2.5,0-2.9h2.2c0,0.2,0.1,0.7,0.1,1c0.4-0.8,1.2-1.2,2.2-1.2c1.1,0,1.7,0.5,2,1.3
			c0.4-0.7,1.1-1.3,2.4-1.3c1.4,0,2.5,0.7,2.5,2.9v7.1h-2.2v-6.7c0-0.8-0.3-1.4-1-1.4c-0.9,0-1.2,0.7-1.2,1.9v6.2h-2.3v-6.7
			c0-0.9-0.3-1.4-1-1.4c-0.9,0-1.2,0.6-1.2,2v6.1h-2.3V-60.9z"/>
		<path d="M66.2-63.9h2.3v9.8h-2.3V-63.9z M66.2-67.5h2.3v2.2h-2.3V-67.5z"/>
		<path d="M72.7-54.8v4.3h-2.3V-61c0-1.3,0-2.2,0-2.8h2.2c0,0.2,0.1,0.7,0.1,1.1c0.3-0.6,0.9-1.2,2.2-1.2c1.8,0,2.9,1.6,2.9,4.9
			c0,3.8-1.3,5.3-3.2,5.3C73.6-53.8,73-54.3,72.7-54.8z M75.5-59c0-2.4-0.5-3.1-1.5-3.1c-1.1,0-1.4,1.1-1.4,3c0,2.3,0.1,3.3,1.4,3.3
			C75-55.8,75.5-56.8,75.5-59z"/>
		<path d="M80.9-57c0,0.7,0.3,1.4,1.3,1.4c0.8,0,1.1-0.4,1.1-1c0-0.7-0.3-1.1-1.5-1.5C79.5-59,79-59.8,79-61.2
			c0-1.3,0.8-2.8,3.2-2.8c2.6,0,3.2,1.8,3.2,3.1h-2.2c0-0.3,0-1.3-1.1-1.3c-0.6,0-0.9,0.4-0.9,0.9c0,0.6,0.4,0.9,1.5,1.3
			c2.1,0.8,2.9,1.6,2.9,3.1c0,1.9-1.2,3-3.4,3c-2.3,0-3.4-1.4-3.4-3.1H80.9z"/>
		<path d="M93.9-56.9c0,1.4,0,2.4,0,2.9h-2.2c-0.1-0.3-0.1-0.7-0.1-1.1c-0.4,0.9-1.1,1.2-2.2,1.2c-1.4,0-2.5-0.7-2.5-2.9v-7.1h2.3
			v6.5c0,1,0.2,1.5,1,1.5c0.9,0,1.3-0.5,1.3-2v-6h2.3V-56.9z"/>
		<path d="M95.9-60.9c0-1.9,0-2.5,0-2.9H98c0,0.2,0.1,0.7,0.1,1c0.4-0.8,1.2-1.2,2.2-1.2c1.1,0,1.7,0.5,2,1.3
			c0.4-0.7,1.1-1.3,2.4-1.3c1.4,0,2.5,0.7,2.5,2.9v7.1h-2.2v-6.7c0-0.8-0.3-1.4-1-1.4c-0.9,0-1.2,0.7-1.2,1.9v6.2h-2.3v-6.7
			c0-0.9-0.3-1.4-1-1.4c-0.9,0-1.2,0.6-1.2,2v6.1h-2.3V-60.9z"/>
	</g>
</g>
</svg>
